Coordinates
version=1
nRows=14
nColumns=40
inDegrees=yes

Units are S.I. units (second, meters, Newtons, ...)
If the header above contains a line with 'inDegrees', this indicates whether rotational values are in degrees (yes) or radians (no).

endheader
time	pelvis_tilt	pelvis_list	pelvis_rotation	pelvis_tx	pelvis_ty	pelvis_tz	hip_flexion_r	hip_adduction_r	hip_rotation_r	knee_angle_r	knee_angle_r_beta	ankle_angle_r	subtalar_angle_r	mtp_angle_r	hip_flexion_l	hip_adduction_l	hip_rotation_l	knee_angle_l	knee_angle_l_beta	ankle_angle_l	subtalar_angle_l	mtp_angle_l	lumbar_extension	lumbar_bending	lumbar_rotation	arm_flex_r	arm_add_r	arm_rot_r	elbow_flex_r	pro_sup_r	wrist_flex_r	wrist_dev_r	arm_flex_l	arm_add_l	arm_rot_l	elbow_flex_l	pro_sup_l	wrist_flex_l	wrist_dev_l
     27.36666700	      0.51458020	     11.33829585	    -90.87520115	      0.24477935	      0.97407257	      0.48146370	      7.98316912	    -12.59315805	    -26.60445794	      0.56151675	      0.00980032	    -10.80577741	      0.00000000	      0.00000000	      9.36039579	    -12.37073394	    -24.42326593	      1.62867088	      0.02842567	     -7.01581925	      0.00000000	      0.00000000	     12.90632602	     -1.20777039	      4.10234863	      6.22839702	    -15.25554011	     37.15228167	    142.83128930	     62.94008443	      0.00000000	      0.00000000	     15.43973577	    -14.55923706	     38.33315355	    134.16993036	     69.43229063	      0.00000000	      0.00000000
     27.38333300	      0.65390439	     11.15509984	    -90.82416129	      0.24461488	      0.97401267	      0.48286160	      7.60816479	    -12.74289128	    -26.90818676	      0.57468177	      0.01003009	    -10.78614305	      0.00000000	      0.00000000	      9.01780816	    -12.18576508	    -24.33494439	      1.54110219	      0.02689731	     -6.70037343	      0.00000000	      0.00000000	     13.03027653	     -1.37287364	      4.18757612	      5.80573909	    -15.48361961	     37.08587379	    142.91629436	     62.93188827	      0.00000000	      0.00000000	     15.32781696	    -14.78921459	     38.78229442	    134.34600704	     69.57372079	      0.00000000	      0.00000000
     27.40000000	      0.75121701	     10.79747299	    -90.83477754	      0.24486746	      0.97410012	      0.48355640	      7.20422741	    -12.85841094	    -27.12705191	      0.55062904	      0.00961029	    -10.86918526	      0.00000000	      0.00000000	      8.54420170	    -12.06940907	    -24.10435383	      1.47470697	      0.02573849	     -6.53652366	      0.00000000	      0.00000000	     12.82625771	     -1.38708161	      4.25443917	      4.66349373	    -15.51307619	     35.80040987	    142.81212657	     62.88536180	      0.00000000	      0.00000000	     14.27137112	    -14.91074465	     39.18890043	    135.26053914	     69.27428627	      0.00000000	      0.00000000
     27.41666700	      0.72162769	     10.28616144	    -90.46330544	      0.24566508	      0.97384330	      0.48439990	      6.41314286	    -12.89081053	    -27.90850147	      0.51707159	      0.00902460	    -10.72631001	      0.00000000	      0.00000000	      7.92058336	    -11.97132899	    -24.15646016	      1.26087995	      0.02200651	     -6.48786642	      0.00000000	      0.00000000	     12.41166589	     -1.40767602	      3.89285768	      4.56998227	    -15.49247065	     36.08726435	    142.90816785	     63.46243827	      0.00000000	      0.00000000	     13.73011779	    -15.24251182	     39.42160988	    135.30657030	     68.92601287	      0.00000000	      0.00000000
     27.43333300	      0.69680631	     10.09857678	    -90.52630093	      0.24608614	      0.97401339	      0.48506776	      6.19763569	    -12.88871497	    -28.20709244	      0.52147760	      0.00910150	    -10.67869253	      0.00000000	      0.00000000	      7.62319157	    -11.98907067	    -24.35604654	      1.19242443	      0.02081173	     -6.10967173	      0.00000000	      0.00000000	     12.36823043	     -1.25439160	      4.08522230	      4.11318864	    -15.92547428	     36.00432000	    142.84425151	     63.68643495	      0.00000000	      0.00000000	     13.01181103	    -15.46161336	     39.81103650	    135.84566521	     68.82028986	      0.00000000	      0.00000000
     27.45000000	      0.70229244	      9.77506757	    -90.53772823	      0.24630064	      0.97426625	      0.48498806	      5.85830721	    -12.89337443	    -28.44798546	      0.53460824	      0.00933067	    -10.58842301	      0.00000000	      0.00000000	      7.25495011	    -11.96742513	    -24.57015929	      1.13766471	      0.01985599	     -5.92729291	      0.00000000	      0.00000000	     12.11366339	     -1.16460568	      4.27377492	      2.63940739	    -16.36013397	     33.03214617	    142.57147240	     63.91975749	      0.00000000	      0.00000000	     12.85346844	    -15.57981419	     39.69881672	    135.79320152	     68.32939001	      0.00000000	      0.00000000
     27.46666700	      0.83214784	      9.29044239	    -90.40364513	      0.24565274	      0.97402623	      0.48555485	      5.24558697	    -13.00664925	    -28.64034185	      0.51588606	      0.00900391	    -10.18606826	      0.00000000	      0.00000000	      6.65906071	    -11.83461900	    -24.53134335	      1.06107296	      0.01851922	     -5.72591151	      0.00000000	      0.00000000	     11.66273814	     -1.49769979	      3.91102339	      2.49354928	    -16.37056828	     33.13291159	    142.35134428	     67.79625141	      0.00000000	      0.00000000	     13.50742846	    -16.91182731	     41.20844984	    136.50015470	     62.26909620	      0.00000000	      0.00000000
     27.48333300	      0.72132891	      8.95305759	    -90.54877839	      0.24600609	      0.97378824	      0.48581356	      4.94738048	    -12.94442317	    -28.55358657	      0.51897456	      0.00905781	    -10.32754434	      0.00000000	      0.00000000	      6.01759391	    -11.86384231	    -25.35657932	      1.13202800	      0.01975762	     -5.27510962	      0.00000000	      0.00000000	     11.36210773	     -1.24133870	      3.65264966	      2.65460956	    -16.46847152	     32.94559496	    142.03311653	     69.10560150	      0.00000000	      0.00000000	     13.02377928	    -17.11351295	     40.41488940	    136.01696164	     68.40283428	      0.00000000	      0.00000000
     27.50000000	      0.54646540	      8.83871284	    -90.20087182	      0.24644461	      0.97317224	      0.48556028	      4.69479438	    -12.78869236	    -28.87286498	      0.51398676	      0.00897076	    -10.10239642	      0.00000000	      0.00000000	      5.91956364	    -11.97162848	    -24.77762957	      1.06798650	      0.01863988	     -5.03194113	      0.00000000	      0.00000000	     11.33901357	     -1.10506498	      3.17609823	      2.46844194	    -16.64171941	     34.21090095	    142.08042864	     66.84118467	      0.00000000	      0.00000000	     12.41185379	    -17.37436804	     41.11512017	    136.91808277	     64.34380902	      0.00000000	      0.00000000
     27.51666700	      0.42547523	      8.22011208	    -90.25337273	      0.24669087	      0.97351419	      0.48551917	      4.03757283	    -12.68046797	    -29.16927821	      0.52065138	      0.00908708	    -10.05575775	      0.00000000	      0.00000000	      5.13310556	    -12.01590459	    -25.03837309	      1.02005745	      0.01780336	     -4.85896672	      0.00000000	      0.00000000	     10.72131079	     -0.98071502	      2.97145166	      1.99533693	    -16.89747911	     33.71025535	    141.95944918	     66.56232741	      0.00000000	      0.00000000	     11.59191237	    -17.39756795	     37.83092824	    135.88731844	     81.09034087	      0.00000000	      0.00000000
     27.53333300	      0.42416687	      8.04503515	    -90.32624422	      0.24654955	      0.97320737	      0.48598816	      3.72671118	    -12.68727677	    -29.34943325	      0.54356606	      0.00948702	    -10.09511567	      0.00000000	      0.00000000	      4.86582427	    -12.03301843	    -25.05015850	      0.98718452	      0.01722962	     -4.82857836	      0.00000000	      0.00000000	     10.66264839	     -0.91293485	      2.88065936	      1.12675096	    -16.81324321	     31.08083582	    141.80257825	     66.24160459	      0.00000000	      0.00000000	      9.98293558	    -17.97113200	     37.62330313	    135.33597642	     80.26876270	      0.00000000	      0.00000000
     27.55000000	      0.36672357	      7.80154541	    -90.23593367	      0.24672188	      0.97311646	      0.48628686	      3.37198105	    -12.62315371	    -29.38903867	      0.54873772	      0.00957728	     -9.46545178	      0.00000000	      0.00000000	      4.57918500	    -12.07588314	    -24.97193319	      0.99280909	      0.01732779	     -4.84597178	      0.00000000	      0.00000000	     10.47688592	     -0.79332150	      3.27156651	      0.93003610	    -17.03821656	     33.52162146	    142.47735491	     66.20999380	      0.00000000	      0.00000000	     10.08352986	    -17.94663790	     38.05467130	    135.82493514	     80.46757921	      0.00000000	      0.00000000
     27.56666700	      0.26659063	      6.98579188	    -90.26219070	      0.24701508	      0.97391385	      0.48654399	      2.45270846	    -12.53843112	    -29.33474802	      0.55078599	      0.00961303	     -9.34686343	      0.00000000	      0.00000000	      3.65852584	    -12.16743487	    -25.12892288	      0.94054833	      0.01641567	     -4.90059938	      0.00000000	      0.00000000	      9.57974669	     -0.54652280	      3.56382403	      0.54771657	    -17.21469215	     33.65361681	    142.98658442	     63.27458508	      0.00000000	      0.00000000	      9.96090391	    -17.71764013	     37.69228776	    135.47889061	     82.19420803	      0.00000000	      0.00000000
     27.58333300	      0.30721025	      6.85909389	    -90.28220140	      0.24691172	      0.97368948	      0.48733970	      2.26202989	    -12.58053667	    -29.22282199	      0.55576500	      0.00969993	     -9.37593885	      0.00000000	      0.00000000	      3.45804301	    -12.14389348	    -25.06190472	      1.00444469	      0.01753087	     -4.86438955	      0.00000000	      0.00000000	      9.50982643	     -0.60155681	      3.56230381	      0.25509451	    -17.65303795	     34.34308758	    143.04121903	     63.42716698	      0.00000000	      0.00000000	      9.48203820	    -17.98791095	     38.25657775	    135.65811576	     82.22153441	      0.00000000	      0.00000000
